<?xml version="1.0" encoding="UTF-8" standalone="no"?>
<!-- Created with Inkscape (http://www.inkscape.org/) -->

<svg
   xmlns:dc="http://purl.org/dc/elements/1.1/"
   xmlns:cc="http://creativecommons.org/ns#"
   xmlns:rdf="http://www.w3.org/1999/02/22-rdf-syntax-ns#"
   xmlns:svg="http://www.w3.org/2000/svg"
   xmlns="http://www.w3.org/2000/svg"
   xmlns:sodipodi="http://sodipodi.sourceforge.net/DTD/sodipodi-0.dtd"
   xmlns:inkscape="http://www.inkscape.org/namespaces/inkscape"
   width="24"
   height="24"
   id="svg2"
   version="1.1"
   inkscape:version="0.48.0 r9654"
   sodipodi:docname="clip.svg"
   inkscape:export-filename="/home/res/sources/nutogui/src/ResultViewer/art/clip.png"
   inkscape:export-xdpi="90"
   inkscape:export-ydpi="90">
  <defs
     id="defs4">
    <clipPath
       clipPathUnits="userSpaceOnUse"
       id="clipPath3784">
      <path
         style="opacity:0.35517243;fill:#ff0000;fill-opacity:1;stroke:none"
         d="m -3.5,8 27.5,8.5 0,7 -27.5,0 z"
         id="path3786"
         inkscape:connector-curvature="0"
         sodipodi:nodetypes="ccccc" />
    </clipPath>
  </defs>
  <sodipodi:namedview
     id="base"
     pagecolor="#ffffff"
     bordercolor="#666666"
     borderopacity="1.0"
     inkscape:pageopacity="0.0"
     inkscape:pageshadow="2"
     inkscape:zoom="36"
     inkscape:cx="6.36375"
     inkscape:cy="11.318635"
     inkscape:document-units="px"
     inkscape:current-layer="layer1"
     showgrid="true"
     inkscape:window-width="1920"
     inkscape:window-height="1099"
     inkscape:window-x="0"
     inkscape:window-y="33"
     inkscape:window-maximized="1">
    <inkscape:grid
       type="xygrid"
       id="grid2985"
       empspacing="5"
       visible="false"
       enabled="true"
       snapvisiblegridlinesonly="true"
       spacingx="0.5px"
       spacingy="0.5px" />
    <inkscape:grid
       type="xygrid"
       id="grid2987"
       empspacing="5"
       visible="true"
       enabled="true"
       snapvisiblegridlinesonly="true" />
  </sodipodi:namedview>
  <metadata
     id="metadata7">
    <rdf:RDF>
      <cc:Work
         rdf:about="">
        <dc:format>image/svg+xml</dc:format>
        <dc:type
           rdf:resource="http://purl.org/dc/dcmitype/StillImage" />
        <dc:title></dc:title>
      </cc:Work>
    </rdf:RDF>
  </metadata>
  <g
     inkscape:label="Layer 1"
     inkscape:groupmode="layer"
     id="layer1"
     transform="translate(0,-1028.3622)">
    <path
       style="font-size:medium;font-style:normal;font-variant:normal;font-weight:normal;font-stretch:normal;text-indent:0;text-align:start;text-decoration:none;line-height:normal;letter-spacing:normal;word-spacing:normal;text-transform:none;direction:ltr;block-progression:tb;writing-mode:lr-tb;text-anchor:start;baseline-shift:baseline;opacity:0.30689655;color:#000000;fill:#000000;fill-opacity:1;stroke:#ffffff;stroke-width:1;stroke-miterlimit:2;stroke-opacity:1;stroke-dasharray:none;marker:none;visibility:visible;display:inline;overflow:visible;enable-background:accumulate;font-family:Sans;-inkscape-font-specification:Sans"
       d="M 5,4.5 C 4.1862786,4.5 3.5,5.1863 3.5,6 l 0,13 c 0,0.8137 0.6862786,1.5 1.5,1.5 l 13,0 c 0.813721,0 1.5,-0.6863 1.5,-1.5 l 0,-13 C 19.5,5.1863 18.813721,4.5 18,4.5 z m 0.5,2 5,0 0,5 -5,0 z m 7,0 5,0 0,5 -5,0 z m -7,7 5,0 0,5 -5,0 z m 7,0 5,0 0,5 -5,0 z"
       transform="translate(0,1028.3622)"
       id="rect2989"
       inkscape:connector-curvature="0"
       sodipodi:nodetypes="ssssssssscccccccccccccccccccc" />
    <path
       sodipodi:nodetypes="ssssssssscccccccccccccccccccc"
       inkscape:connector-curvature="0"
       id="path3782"
       transform="translate(0,1028.3622)"
       d="M 5,7 C 4.1862786,7 3.5,7.6863 3.5,8.5 l 0,10.5 c 0,0.8137 0.6862786,1.5 1.5,1.5 l 13,0 c 0.813721,0 1.5,-0.6863 1.5,-1.5 l 0,-10.5 C 19.5,7.6863 18.813721,7 18,7 z m 0.5,2 5,0 0,2.5 -5,0 z m 7,0 5,0 0,2.5 -5,0 z m -7,4.5 5,0 0,5 -5,0 z m 7,0 5,0 0,5 -5,0 z"
       style="font-size:medium;font-style:normal;font-variant:normal;font-weight:normal;font-stretch:normal;text-indent:0;text-align:start;text-decoration:none;line-height:normal;letter-spacing:normal;word-spacing:normal;text-transform:none;direction:ltr;block-progression:tb;writing-mode:lr-tb;text-anchor:start;baseline-shift:baseline;color:#000000;fill:#000000;fill-opacity:1;stroke:#ffffff;stroke-width:1;stroke-miterlimit:2;stroke-opacity:1;stroke-dasharray:none;marker:none;visibility:visible;display:inline;overflow:visible;enable-background:accumulate;font-family:Sans;-inkscape-font-specification:Sans"
       clip-path="url(#clipPath3784)" />
    <path
       style="fill:#0000e8;fill-opacity:1;stroke:#faff9e;stroke-width:1;stroke-linejoin:round;stroke-miterlimit:2;stroke-opacity:1;stroke-dasharray:none"
       d="m 2,1036.8622 19,6 c 0.99557,0.3144 1.5,0.5 1.5,1.5 0,1 -0.50443,1.3144 -1.5,1 l -19,-6 c -0.9955695,-0.3144 -1.5,-0.5 -1.5,-1.5 0,-1 0.5044305,-1.3144 1.5,-1 z"
       id="rect3788"
       inkscape:connector-curvature="0"
       sodipodi:nodetypes="sssssss" />
  </g>
</svg>
