<?xml version="1.0" encoding="UTF-8" standalone="no"?>
<!-- Created with Inkscape (http://www.inkscape.org/) -->

<svg
   xmlns:dc="http://purl.org/dc/elements/1.1/"
   xmlns:cc="http://creativecommons.org/ns#"
   xmlns:rdf="http://www.w3.org/1999/02/22-rdf-syntax-ns#"
   xmlns:svg="http://www.w3.org/2000/svg"
   xmlns="http://www.w3.org/2000/svg"
   xmlns:sodipodi="http://sodipodi.sourceforge.net/DTD/sodipodi-0.dtd"
   xmlns:inkscape="http://www.inkscape.org/namespaces/inkscape"
   inkscape:export-ydpi="90"
   inkscape:export-xdpi="90"
   inkscape:export-filename="/home/hiwis/res2004/nutogui/src/ResultViewer/art/render-wf.png"
   sodipodi:docname="render-wf.svg"
   inkscape:version="0.47 r22583"
   sodipodi:version="0.32"
   id="svg249"
   height="24"
   width="24"
   inkscape:output_extension="org.inkscape.output.svg.inkscape"
   version="1.1">
  <defs
     id="defs3">
    <inkscape:perspective
       sodipodi:type="inkscape:persp3d"
       inkscape:vp_x="8.1350516 : 8.1350516 : 0"
       inkscape:vp_y="0 : 1000 : 0"
       inkscape:vp_z="24.426763 : 0 : 0"
       inkscape:persp3d-origin="30.988504 : 6.7346923 : 1"
       id="perspective3900" />
  </defs>
  <sodipodi:namedview
     inkscape:window-y="-3"
     inkscape:window-x="-4"
     inkscape:window-height="1122"
     inkscape:window-width="1600"
     inkscape:document-units="px"
     inkscape:grid-bbox="true"
     showgrid="true"
     inkscape:current-layer="g3742"
     inkscape:cy="8.6705638"
     inkscape:cx="4.4958569"
     inkscape:zoom="22.736843"
     inkscape:pageshadow="2"
     inkscape:pageopacity="0.0"
     borderopacity="0.25490196"
     bordercolor="#666666"
     pagecolor="#ffffff"
     id="base"
     inkscape:showpageshadow="true"
     borderlayer="true"
     inkscape:window-maximized="1">
    <inkscape:grid
       type="xygrid"
       id="grid3822"
       empspacing="5"
       visible="true"
       enabled="true"
       snapvisiblegridlinesonly="true" />
    <inkscape:grid
       type="xygrid"
       id="grid3824"
       empspacing="5"
       visible="false"
       enabled="true"
       snapvisiblegridlinesonly="true"
       spacingx="0.5px"
       spacingy="0.5px"
       color="#ff0000"
       opacity="0.1254902"
       empcolor="#ff0000"
       empopacity="0.25098039" />
    <inkscape:grid
       type="xygrid"
       id="grid4081"
       empspacing="5"
       visible="true"
       enabled="false"
       snapvisiblegridlinesonly="true"
       spacingx="0.25px"
       spacingy="0.25px" />
  </sodipodi:namedview>
  <metadata
     id="metadata4">
    <rdf:RDF>
      <cc:Work
         rdf:about="">
        <dc:format>image/svg+xml</dc:format>
        <dc:type
           rdf:resource="http://purl.org/dc/dcmitype/StillImage" />
        <dc:title></dc:title>
        <dc:subject>
          <rdf:Bag>
            <rdf:li>text</rdf:li>
            <rdf:li>plaintext</rdf:li>
            <rdf:li>regular</rdf:li>
            <rdf:li>document</rdf:li>
          </rdf:Bag>
        </dc:subject>
        <cc:license
           rdf:resource="http://creativecommons.org/licenses/publicdomain/" />
        <dc:creator>
          <cc:Agent>
            <dc:title>Jakub Steiner</dc:title>
          </cc:Agent>
        </dc:creator>
        <dc:source>http://jimmac.musichall.cz</dc:source>
      </cc:Work>
      <cc:License
         rdf:about="http://creativecommons.org/licenses/publicdomain/">
        <cc:permits
           rdf:resource="http://creativecommons.org/ns#Reproduction" />
        <cc:permits
           rdf:resource="http://creativecommons.org/ns#Distribution" />
        <cc:permits
           rdf:resource="http://creativecommons.org/ns#DerivativeWorks" />
      </cc:License>
    </rdf:RDF>
  </metadata>
  <g
     style="display:inline"
     inkscape:groupmode="layer"
     inkscape:label="Base"
     id="layer1"
     transform="translate(0,-24)">
    <g
       style="fill:none;stroke:#000000;stroke-width:1;stroke-linecap:round;stroke-linejoin:round;stroke-miterlimit:7.69999981;stroke-opacity:1;stroke-dasharray:none;stroke-dashoffset:0"
       id="g3742">
      <path
         style="font-size:medium;font-style:normal;font-variant:normal;font-weight:normal;font-stretch:normal;text-indent:0;text-align:start;text-decoration:none;line-height:normal;letter-spacing:normal;word-spacing:normal;text-transform:none;direction:ltr;block-progression:tb;writing-mode:lr-tb;text-anchor:start;color:#000000;fill:#000000;fill-opacity:1;stroke:#ffffff;stroke-width:1;marker:none;visibility:visible;display:inline;overflow:visible;enable-background:accumulate;font-family:Bitstream Vera Sans;-inkscape-font-specification:Bitstream Vera Sans;stroke-opacity:1"
         d="m 7.375,27 a 0.50005,0.50005 0 0 0 -0.21875,0.15625 l -4,4 A 0.50005,0.50005 0 0 0 3,31.5 l 0,13 a 0.50005,0.50005 0 0 0 0.84375,0.34375 l 4,-4 A 0.50005,0.50005 0 0 0 8,40.5 l 0,-13 A 0.50005,0.50005 0 0 0 7.375,27 z M 7,28.6875 l 0,11.625 -3,3 0,-11.625 3,-3 z"
         id="path3748" />
      <path
         style="font-size:medium;font-style:normal;font-variant:normal;font-weight:normal;font-stretch:normal;text-indent:0;text-align:start;text-decoration:none;line-height:normal;letter-spacing:normal;word-spacing:normal;text-transform:none;direction:ltr;block-progression:tb;writing-mode:lr-tb;text-anchor:start;color:#000000;fill:#000000;fill-opacity:1;stroke:#ffffff;stroke-width:1;marker:none;visibility:visible;display:inline;overflow:visible;enable-background:accumulate;font-family:Bitstream Vera Sans;-inkscape-font-specification:Bitstream Vera Sans;stroke-opacity:1"
         d="m 7.40625,27 a 0.50005,0.50005 0 0 0 -0.25,0.15625 l -4,4 A 0.50005,0.50005 0 0 0 3.5,32 l 13,0 a 0.50005,0.50005 0 0 0 0.34375,-0.15625 l 4,-4 A 0.50005,0.50005 0 0 0 20.5,27 l -13,0 a 0.50005,0.50005 0 0 0 -0.09375,0 z m 0.28125,1 11.625,0 -3,3 -11.625,0 3,-3 z"
         id="path3752" />
      <path
         style="font-size:medium;font-style:normal;font-variant:normal;font-weight:normal;font-stretch:normal;text-indent:0;text-align:start;text-decoration:none;line-height:normal;letter-spacing:normal;word-spacing:normal;text-transform:none;direction:ltr;block-progression:tb;writing-mode:lr-tb;text-anchor:start;color:#000000;fill:#000000;fill-opacity:1;stroke:#ffffff;stroke-width:1;marker:none;visibility:visible;display:inline;overflow:visible;enable-background:accumulate;font-family:Bitstream Vera Sans;-inkscape-font-specification:Bitstream Vera Sans;stroke-opacity:1"
         d="M 7.40625,27 A 0.50005,0.50005 0 0 0 7,27.5 l 0,13 A 0.50005,0.50005 0 0 0 7.5,41 l 13,0 A 0.50005,0.50005 0 0 0 21,40.5 l 0,-13 A 0.50005,0.50005 0 0 0 20.5,27 l -13,0 A 0.50005,0.50005 0 0 0 7.40625,27 z M 8,28 20,28 20,40 8,40 8,28 z"
         id="path3744" />
      <path
         style="font-size:medium;font-style:normal;font-variant:normal;font-weight:normal;font-stretch:normal;text-indent:0;text-align:start;text-decoration:none;line-height:normal;letter-spacing:normal;word-spacing:normal;text-transform:none;direction:ltr;block-progression:tb;writing-mode:lr-tb;text-anchor:start;color:#000000;fill:#000000;fill-opacity:1;stroke:#ffffff;stroke-width:1;marker:none;visibility:visible;display:inline;overflow:visible;enable-background:accumulate;font-family:Bitstream Vera Sans;-inkscape-font-specification:Bitstream Vera Sans;stroke-opacity:1"
         d="m 7.40625,40 a 0.50005,0.50005 0 0 0 -0.25,0.15625 l -4,4 A 0.50005,0.50005 0 0 0 3.5,45 l 13,0 a 0.50005,0.50005 0 0 0 0.34375,-0.15625 l 4,-4 A 0.50005,0.50005 0 0 0 20.5,40 l -13,0 a 0.50005,0.50005 0 0 0 -0.09375,0 z m 0.28125,1 11.625,0 -3,3 -11.625,0 3,-3 z"
         id="path3746" />
      <path
         style="font-size:medium;font-style:normal;font-variant:normal;font-weight:normal;font-stretch:normal;text-indent:0;text-align:start;text-decoration:none;line-height:normal;letter-spacing:normal;word-spacing:normal;text-transform:none;direction:ltr;block-progression:tb;writing-mode:lr-tb;text-anchor:start;color:#000000;fill:#000000;fill-opacity:1;stroke:#ffffff;stroke-width:1;marker:none;visibility:visible;display:inline;overflow:visible;enable-background:accumulate;font-family:Bitstream Vera Sans;-inkscape-font-specification:Bitstream Vera Sans;stroke-opacity:1"
         d="m 20.375,27 a 0.50005,0.50005 0 0 0 -0.21875,0.15625 l -4,4 A 0.50005,0.50005 0 0 0 16,31.5 l 0,13 a 0.50005,0.50005 0 0 0 0.84375,0.34375 l 4,-4 A 0.50005,0.50005 0 0 0 21,40.5 l 0,-13 A 0.50005,0.50005 0 0 0 20.375,27 z M 20,28.6875 l 0,11.625 -3,3 0,-11.625 3,-3 z"
         id="path3750" />
      <path
         style="font-size:medium;font-style:normal;font-variant:normal;font-weight:normal;font-stretch:normal;text-indent:0;text-align:start;text-decoration:none;line-height:normal;letter-spacing:normal;word-spacing:normal;text-transform:none;direction:ltr;block-progression:tb;writing-mode:lr-tb;text-anchor:start;color:#000000;fill:#000000;fill-opacity:1;stroke:#ffffff;stroke-width:1;marker:none;visibility:visible;display:inline;overflow:visible;enable-background:accumulate;font-family:Bitstream Vera Sans;-inkscape-font-specification:Bitstream Vera Sans;stroke-opacity:1"
         d="M 3.40625,31 A 0.50005,0.50005 0 0 0 3,31.5 l 0,13 A 0.50005,0.50005 0 0 0 3.5,45 l 13,0 A 0.50005,0.50005 0 0 0 17,44.5 l 0,-13 A 0.50005,0.50005 0 0 0 16.5,31 l -13,0 A 0.50005,0.50005 0 0 0 3.40625,31 z M 4,32 16,32 16,44 4,44 4,32 z"
         id="path3754" />
    </g>
    <g
       id="g5294"
       style="fill:none;stroke:#000000;stroke-width:1;stroke-linecap:round;stroke-linejoin:round;stroke-miterlimit:7.69999981;stroke-opacity:1;stroke-dasharray:none;stroke-dashoffset:0">
      <path
         d="m 7.5000003,27.499999 0,13 12.9999997,0 0,-13 z"
         style="fill:none;stroke:#000000;stroke-opacity:1"
         id="path3730" />
      <path
         d="m 7.5000003,40.499999 -4,4 12.9999997,0 4,-4 z"
         style="fill:none;stroke:#000000;stroke-opacity:1"
         id="path3732" />
      <path
         d="m 7.5000003,27.499999 -4,4 0,13 4,-4 z"
         style="fill:none;stroke:#000000;stroke-opacity:1"
         id="path3734" />
      <path
         d="m 20.5,27.499999 -4,4 0,13 4,-4 z"
         style="fill:none;stroke:#000000;stroke-opacity:1"
         id="path3736" />
      <path
         d="m 7.5000003,27.499999 -4,4 12.9999997,0 4,-4 z"
         style="fill:none;stroke:#000000;stroke-opacity:1"
         id="path3738" />
      <path
         d="m 3.5000003,31.499999 0,13 12.9999997,0 0,-13 z"
         style="fill:none;stroke:#000000;stroke-opacity:1"
         id="path3740" />
    </g>
  </g>
</svg>
