<?xml version="1.0" encoding="UTF-8" standalone="no"?>
<!-- Created with Inkscape (http://www.inkscape.org/) -->

<svg
   xmlns:dc="http://purl.org/dc/elements/1.1/"
   xmlns:cc="http://creativecommons.org/ns#"
   xmlns:rdf="http://www.w3.org/1999/02/22-rdf-syntax-ns#"
   xmlns:svg="http://www.w3.org/2000/svg"
   xmlns="http://www.w3.org/2000/svg"
   xmlns:sodipodi="http://sodipodi.sourceforge.net/DTD/sodipodi-0.dtd"
   xmlns:inkscape="http://www.inkscape.org/namespaces/inkscape"
   inkscape:export-ydpi="60"
   inkscape:export-xdpi="60"
   inkscape:export-filename="/home/hiwis/res2004/nutogui/src/ResultViewer/art/render-wf_menu.png"
   sodipodi:docname="render-wf_menu.svg"
   inkscape:version="0.47 r22583"
   sodipodi:version="0.32"
   id="svg249"
   height="24"
   width="24"
   inkscape:output_extension="org.inkscape.output.svg.inkscape"
   version="1.1">
  <defs
     id="defs3">
    <inkscape:perspective
       sodipodi:type="inkscape:persp3d"
       inkscape:vp_x="8.1350516 : 8.1350516 : 0"
       inkscape:vp_y="0 : 1000 : 0"
       inkscape:vp_z="24.426763 : 0 : 0"
       inkscape:persp3d-origin="30.988504 : 6.7346923 : 1"
       id="perspective3900" />
  </defs>
  <sodipodi:namedview
     inkscape:window-y="-3"
     inkscape:window-x="-4"
     inkscape:window-height="1122"
     inkscape:window-width="1600"
     inkscape:document-units="px"
     inkscape:grid-bbox="true"
     showgrid="true"
     inkscape:current-layer="g2832"
     inkscape:cy="8.6705638"
     inkscape:cx="-8.535716"
     inkscape:zoom="22.736843"
     inkscape:pageshadow="2"
     inkscape:pageopacity="0.0"
     borderopacity="0.25490196"
     bordercolor="#666666"
     pagecolor="#ffffff"
     id="base"
     inkscape:showpageshadow="true"
     borderlayer="true"
     inkscape:window-maximized="1">
    <inkscape:grid
       type="xygrid"
       id="grid3822"
       empspacing="5"
       visible="true"
       enabled="true"
       snapvisiblegridlinesonly="true" />
    <inkscape:grid
       type="xygrid"
       id="grid3824"
       empspacing="5"
       visible="false"
       enabled="true"
       snapvisiblegridlinesonly="true"
       spacingx="0.5px"
       spacingy="0.5px"
       color="#ff0000"
       opacity="0.1254902"
       empcolor="#ff0000"
       empopacity="0.25098039" />
    <inkscape:grid
       type="xygrid"
       id="grid4081"
       empspacing="5"
       visible="true"
       enabled="false"
       snapvisiblegridlinesonly="true"
       spacingx="0.25px"
       spacingy="0.25px" />
  </sodipodi:namedview>
  <metadata
     id="metadata4">
    <rdf:RDF>
      <cc:Work
         rdf:about="">
        <dc:format>image/svg+xml</dc:format>
        <dc:type
           rdf:resource="http://purl.org/dc/dcmitype/StillImage" />
        <dc:title />
        <dc:subject>
          <rdf:Bag>
            <rdf:li>text</rdf:li>
            <rdf:li>plaintext</rdf:li>
            <rdf:li>regular</rdf:li>
            <rdf:li>document</rdf:li>
          </rdf:Bag>
        </dc:subject>
        <cc:license
           rdf:resource="http://creativecommons.org/licenses/publicdomain/" />
        <dc:creator>
          <cc:Agent>
            <dc:title>Jakub Steiner</dc:title>
          </cc:Agent>
        </dc:creator>
        <dc:source>http://jimmac.musichall.cz</dc:source>
      </cc:Work>
      <cc:License
         rdf:about="http://creativecommons.org/licenses/publicdomain/">
        <cc:permits
           rdf:resource="http://creativecommons.org/ns#Reproduction" />
        <cc:permits
           rdf:resource="http://creativecommons.org/ns#Distribution" />
        <cc:permits
           rdf:resource="http://creativecommons.org/ns#DerivativeWorks" />
      </cc:License>
    </rdf:RDF>
  </metadata>
  <g
     style="display:inline"
     inkscape:groupmode="layer"
     inkscape:label="Base"
     id="layer1"
     transform="translate(0,-24)">
    <g
       id="g2832"
       style="fill:none;stroke:#000000;stroke-width:1;stroke-linecap:round;stroke-linejoin:round;stroke-miterlimit:7.69999981;stroke-opacity:1;stroke-dasharray:none;stroke-dashoffset:0">
      <path
         style="font-size:medium;font-style:normal;font-variant:normal;font-weight:normal;font-stretch:normal;text-indent:0;text-align:start;text-decoration:none;line-height:normal;letter-spacing:normal;word-spacing:normal;text-transform:none;direction:ltr;block-progression:tb;writing-mode:lr-tb;text-anchor:start;color:#000000;fill:#000000;fill-opacity:1;stroke:#ffffff;stroke-width:2;marker:none;visibility:visible;display:inline;overflow:visible;enable-background:accumulate;font-family:Bitstream Vera Sans;-inkscape-font-specification:Bitstream Vera Sans;stroke-opacity:1;stroke-miterlimit:7.69999981;stroke-dasharray:none;opacity:1"
         d="M 7.90625,27 A 0.50005,0.50005 0 0 0 7.5,27.5 L 7.5,40 A 0.50005,0.50005 0 0 0 8,40.5 l 12.46875,0 a 0.50005,0.50005 0 0 0 0.5,-0.5 l 0,-12.5 a 0.50005,0.50005 0 0 0 -0.5,-0.5 L 8,27 A 0.50005,0.50005 0 0 0 7.90625,27 z M 8.5,28 l 11.46875,0 0,11.5 L 8.5,39.5 8.5,28 z"
         id="path2848" />
      <path
         style="font-size:medium;font-style:normal;font-variant:normal;font-weight:normal;font-stretch:normal;text-indent:0;text-align:start;text-decoration:none;line-height:normal;letter-spacing:normal;word-spacing:normal;text-transform:none;direction:ltr;block-progression:tb;writing-mode:lr-tb;text-anchor:start;color:#000000;fill:#000000;fill-opacity:1;stroke:#ffffff;stroke-width:2;marker:none;visibility:visible;display:inline;overflow:visible;enable-background:accumulate;font-family:Bitstream Vera Sans;-inkscape-font-specification:Bitstream Vera Sans;stroke-opacity:1;stroke-miterlimit:7.69999981;stroke-dasharray:none;opacity:1"
         d="m 7.90625,39.5 a 0.50005,0.50005 0 0 0 -0.25,0.15625 l -4.46875,4.4375 a 0.50005,0.50005 0 0 0 0.34375,0.875 l 12.46875,0 A 0.50005,0.50005 0 0 0 16.34375,44.8125 L 20.8125,40.34375 A 0.50005,0.50005 0 0 0 20.46875,39.5 L 8,39.5 a 0.50005,0.50005 0 0 0 -0.09375,0 z m 0.28125,1 11.0625,0 -3.46875,3.46875 -11.03125,0 L 8.1875,40.5 z"
         id="path2850" />
      <path
         style="font-size:medium;font-style:normal;font-variant:normal;font-weight:normal;font-stretch:normal;text-indent:0;text-align:start;text-decoration:none;line-height:normal;letter-spacing:normal;word-spacing:normal;text-transform:none;direction:ltr;block-progression:tb;writing-mode:lr-tb;text-anchor:start;color:#000000;fill:#000000;fill-opacity:1;stroke:#ffffff;stroke-width:2;marker:none;visibility:visible;display:inline;overflow:visible;enable-background:accumulate;font-family:Bitstream Vera Sans;-inkscape-font-specification:Bitstream Vera Sans;stroke-opacity:1;stroke-miterlimit:7.69999981;stroke-dasharray:none;opacity:1"
         d="m 7.875,27 a 0.50005,0.50005 0 0 0 -0.21875,0.15625 l -4.46875,4.4375 a 0.50005,0.50005 0 0 0 -0.15625,0.375 l 0,12.5 a 0.50005,0.50005 0 0 0 0.875,0.34375 l 4.4375,-4.46875 A 0.50005,0.50005 0 0 0 8.5,40 l 0,-12.5 A 0.50005,0.50005 0 0 0 7.875,27 z m -0.375,1.6875 0,11.125 -3.46875,3.4375 0,-11.0625 3.46875,-3.5 z"
         id="path2852" />
      <path
         style="font-size:medium;font-style:normal;font-variant:normal;font-weight:normal;font-stretch:normal;text-indent:0;text-align:start;text-decoration:none;line-height:normal;letter-spacing:normal;word-spacing:normal;text-transform:none;direction:ltr;block-progression:tb;writing-mode:lr-tb;text-anchor:start;color:#000000;fill:#000000;fill-opacity:1;stroke:#ffffff;stroke-width:2;marker:none;visibility:visible;display:inline;overflow:visible;enable-background:accumulate;font-family:Bitstream Vera Sans;-inkscape-font-specification:Bitstream Vera Sans;stroke-opacity:1;stroke-miterlimit:7.69999981;stroke-dasharray:none;opacity:1"
         d="m 20.34375,27 a 0.50005,0.50005 0 0 0 -0.25,0.15625 l -4.4375,4.4375 A 0.50005,0.50005 0 0 0 15.5,31.96875 l 0,12.5 a 0.50005,0.50005 0 0 0 0.84375,0.34375 L 20.8125,40.34375 A 0.50005,0.50005 0 0 0 20.96875,40 l 0,-12.5 a 0.50005,0.50005 0 0 0 -0.625,-0.5 z m -0.375,1.6875 0,11.09375 L 16.5,43.25 l 0,-11.09375 3.46875,-3.46875 z"
         id="path2854" />
      <path
         style="font-size:medium;font-style:normal;font-variant:normal;font-weight:normal;font-stretch:normal;text-indent:0;text-align:start;text-decoration:none;line-height:normal;letter-spacing:normal;word-spacing:normal;text-transform:none;direction:ltr;block-progression:tb;writing-mode:lr-tb;text-anchor:start;color:#000000;fill:#000000;fill-opacity:1;stroke:#ffffff;stroke-width:2;marker:none;visibility:visible;display:inline;overflow:visible;enable-background:accumulate;font-family:Bitstream Vera Sans;-inkscape-font-specification:Bitstream Vera Sans;stroke-opacity:1;stroke-miterlimit:7.69999981;stroke-dasharray:none;opacity:1"
         d="m 7.90625,27 a 0.50005,0.50005 0 0 0 -0.25,0.15625 l -4.46875,4.4375 a 0.50005,0.50005 0 0 0 0.34375,0.875 l 12.46875,0 A 0.50005,0.50005 0 0 0 16.34375,32.3125 L 20.8125,27.84375 A 0.50005,0.50005 0 0 0 20.46875,27 L 8,27 A 0.50005,0.50005 0 0 0 7.90625,27 z M 8.1875,28 19.25,28 15.78125,31.46875 4.75,31.46875 8.1875,28 z"
         id="path2856" />
      <path
         style="font-size:medium;font-style:normal;font-variant:normal;font-weight:normal;font-stretch:normal;text-indent:0;text-align:start;text-decoration:none;line-height:normal;letter-spacing:normal;word-spacing:normal;text-transform:none;direction:ltr;block-progression:tb;writing-mode:lr-tb;text-anchor:start;color:#000000;fill:#000000;fill-opacity:1;stroke:#ffffff;stroke-width:2;marker:none;visibility:visible;display:inline;overflow:visible;enable-background:accumulate;font-family:Bitstream Vera Sans;-inkscape-font-specification:Bitstream Vera Sans;stroke-opacity:1;stroke-miterlimit:7.69999981;stroke-dasharray:none;opacity:1"
         d="m 3.40625,31.46875 a 0.50005,0.50005 0 0 0 -0.375,0.5 l 0,12.5 a 0.50005,0.50005 0 0 0 0.5,0.5 l 12.46875,0 a 0.50005,0.50005 0 0 0 0.5,-0.5 l 0,-12.5 a 0.50005,0.50005 0 0 0 -0.5,-0.5 l -12.46875,0 a 0.50005,0.50005 0 0 0 -0.125,0 z m 0.625,1 11.46875,0 0,11.5 -11.46875,0 0,-11.5 z"
         id="path2858" />
    </g>
    <g
       sodipodi:type="inkscape:box3d"
       style="fill:none;stroke:#000000;stroke-width:1;stroke-linecap:round;stroke-linejoin:round;stroke-miterlimit:7.69999981;stroke-opacity:1;stroke-dasharray:none;stroke-dashoffset:0"
       id="g5294"
       inkscape:perspectiveID="#perspective3900"
       inkscape:corner0="-2.8258584 : 0.036753812 : 0 : 1"
       inkscape:corner7="-3.3740407 : 0.024253812 : 0.51007541 : 1">
      <path
         sodipodi:type="inkscape:box3dside"
         id="path5296"
         style="fill:none;stroke:#000000;stroke-opacity:1"
         inkscape:box3dsidetype="6"
         d="m 8.0000001,27.5 0,12.5 12.4594909,0 0,-12.5 z" />
      <path
         sodipodi:type="inkscape:box3dside"
         id="path5304"
         style="fill:none;stroke:#000000;stroke-opacity:1"
         inkscape:box3dsidetype="13"
         d="M 8.0000001,40 3.5405088,44.459491 16,44.459491 20.459491,40 z" />
      <path
         sodipodi:type="inkscape:box3dside"
         id="path5300"
         style="fill:none;stroke:#000000;stroke-opacity:1"
         inkscape:box3dsidetype="3"
         d="m 8.0000001,27.5 -4.4594913,4.459491 0,12.5 L 8.0000001,40 z" />
      <path
         sodipodi:type="inkscape:box3dside"
         id="path5306"
         style="fill:none;stroke:#000000;stroke-opacity:1"
         inkscape:box3dsidetype="11"
         d="M 20.459491,27.5 16,31.959491 l 0,12.5 L 20.459491,40 z" />
      <path
         sodipodi:type="inkscape:box3dside"
         id="path5298"
         style="fill:none;stroke:#000000;stroke-opacity:1"
         inkscape:box3dsidetype="5"
         d="M 8.0000001,27.5 3.5405088,31.959491 16,31.959491 20.459491,27.5 z" />
      <path
         sodipodi:type="inkscape:box3dside"
         id="path5302"
         style="fill:none;stroke:#000000;stroke-opacity:1"
         inkscape:box3dsidetype="14"
         d="m 3.5405088,31.959491 0,12.5 12.4594912,0 0,-12.5 z" />
    </g>
  </g>
</svg>
